# xmcd
#
# Track frame offsets:
#	150
#	16734
#	27876
#	38240
#	54201
#	66186
#	84319
#	98481
#	109343
#	120251
#	137044
#	154524
#	166869
#
# Disc length: 2349 seconds
#
# Revision: 2529485304
# Processed by: cddbd v1.5.2PL0 Copyright (c) Steve Scherf et al.
# Submitted via: EZCDAudioConverter 9.1.1.1
#
DISCID=8e092b0d
DTITLE=Various Artist - A Collection of Drinkin' Songs: An Empty Glass (2001)
DYEAR=2001
DGENRE=Country
TTITLE0=Gary Stewart - An Empty Glass
TTITLE1=Heather Myles - Lovin' the Bottle
TTITLE2=Dale Watson - Hair of the Dog
TTITLE3=Katy Moffatt - Stoned at the Jukebox
TTITLE4=Hank Thompson - Scotch and Soda
TTITLE5=Big Sandy and His Fly-Rite Boys - Tequila Calling
TTITLE6=Hollisters - Drinkin' for Two
TTITLE7=Dale Watson - Wine Don't Lie
TTITLE8=Gary Stewart - Brand New Whiskey
TTITLE9=Marty Brown - Behind Bars
TTITLE10=Randy Weeks - Last DWI
TTITLE11=Sprague Brothers - Pink Champagne
TTITLE12=Big Sandy and His Fly-Rite Boys - Booze Party
EXTD=
EXTT0=
EXTT1=
EXTT2=
EXTT3=
EXTT4=
EXTT5=
EXTT6=
EXTT7=
EXTT8=
EXTT9=
EXTT10=
EXTT11=
EXTT12=
PLAYORDER=
